<?xml version="1.0" encoding="UTF-8"?>
<svg id="Layer_1" xmlns="http://www.w3.org/2000/svg" version="1.1" xmlns:xlink="http://www.w3.org/1999/xlink" viewBox="0 0 256 244.5">
  <!-- Generator: Adobe Illustrator 29.6.1, SVG Export Plug-In . SVG Version: 2.1.1 Build 9)  -->
  <defs>
    <style>
      .st0 {
        fill: url(#linear-gradient2);
      }

      .st1 {
        fill: #127bca;
      }

      .st2 {
        fill: #3092c4;
      }

      .st3 {
        fill: url(#linear-gradient10);
      }

      .st4 {
        fill: #125a9e;
      }

      .st5 {
        fill: #fff;
      }

      .st6 {
        fill: url(#linear-gradient1);
      }

      .st7 {
        fill: #1d60b5;
      }

      .st8 {
        fill: url(#linear-gradient9);
      }

      .st9 {
        fill: url(#linear-gradient8);
      }

      .st10 {
        fill: url(#linear-gradient11);
      }

      .st11 {
        fill: #1969bc;
      }

      .st12 {
        fill: url(#linear-gradient16);
      }

      .st13 {
        fill: #175fab;
      }

      .st14 {
        fill: url(#linear-gradient12);
      }

      .st15 {
        fill: url(#linear-gradient7);
      }

      .st16 {
        fill: #7dcbec;
      }

      .st17 {
        fill: url(#linear-gradient4);
      }

      .st18 {
        fill: #05a1e6;
      }

      .st19 {
        fill: url(#linear-gradient14);
      }

      .st20 {
        fill: url(#linear-gradient5);
      }

      .st21 {
        fill: #2b74b1;
      }

      .st22 {
        fill: url(#linear-gradient3);
      }

      .st23 {
        fill: url(#linear-gradient15);
      }

      .st24 {
        fill: url(#linear-gradient17);
      }

      .st25 {
        fill: #14559a;
      }

      .st26 {
        fill: url(#linear-gradient6);
      }

      .st27 {
        fill: url(#linear-gradient13);
      }

      .st28 {
        fill: #5ec5ed;
      }

      .st29 {
        fill: url(#linear-gradient);
      }

      .st30 {
        fill: #0d82ca;
      }

      .st31 {
        fill: #079ae1;
      }

      .st32 {
        fill: #1e5cb3;
      }
    </style>
    <linearGradient id="linear-gradient" x1="739.8" y1="380.5" x2="739.8" y2="380.4" gradientTransform="translate(-292348 268287) scale(395.3 -705)" gradientUnits="userSpaceOnUse">
      <stop offset="0" stop-color="#0994dc"/>
      <stop offset=".3" stop-color="#66cef5"/>
      <stop offset=".8" stop-color="#127bca"/>
      <stop offset="1" stop-color="#127bca"/>
    </linearGradient>
    <linearGradient id="linear-gradient1" x1="739.9" y1="380.5" x2="739.9" y2="380.3" gradientTransform="translate(-306895 275098.9) scale(414.9 -723)" gradientUnits="userSpaceOnUse">
      <stop offset="0" stop-color="#0e76bc"/>
      <stop offset=".4" stop-color="#36aee8"/>
      <stop offset=".8" stop-color="#00adef"/>
      <stop offset="1" stop-color="#00adef"/>
    </linearGradient>
    <linearGradient id="linear-gradient2" x1="739.2" y1="380.2" x2="739.2" y2="380.4" gradientTransform="translate(-291091.2 278595.9) scale(394 -732.4)" gradientUnits="userSpaceOnUse">
      <stop offset="0" stop-color="#1c63b7"/>
      <stop offset=".5" stop-color="#33bdf2"/>
      <stop offset="1" stop-color="#33bdf2" stop-opacity=".4"/>
    </linearGradient>
    <linearGradient id="linear-gradient3" x1="739.3" y1="380.4" x2="739.3" y2="380.2" gradientTransform="translate(-288296 285521.3) scale(390.2 -750.6)" gradientUnits="userSpaceOnUse">
      <stop offset="0" stop-color="#166ab8"/>
      <stop offset=".4" stop-color="#36aee8"/>
      <stop offset=".8" stop-color="#0798dd"/>
      <stop offset="1" stop-color="#0798dd"/>
    </linearGradient>
    <linearGradient id="linear-gradient4" x1="740.6" y1="380.4" x2="740.6" y2="380.3" gradientTransform="translate(-374449 303626.8) scale(505.8 -798.2)" gradientUnits="userSpaceOnUse">
      <stop offset="0" stop-color="#124379"/>
      <stop offset=".4" stop-color="#1487cb"/>
      <stop offset=".8" stop-color="#165197"/>
      <stop offset="1" stop-color="#165197"/>
    </linearGradient>
    <linearGradient id="linear-gradient5" x1="735.1" y1="380.2" x2="735.3" y2="380.2" gradientTransform="translate(-123667.9 101948) scale(168.3 -268)" gradientUnits="userSpaceOnUse">
      <stop offset="0" stop-color="#33bdf2" stop-opacity=".7"/>
      <stop offset="1" stop-color="#1dacd8"/>
    </linearGradient>
    <linearGradient id="linear-gradient6" x1="740.5" y1="380.3" x2="740.5" y2="380.4" gradientTransform="translate(-507805.5 325349.8) scale(686 -855.3)" gradientUnits="userSpaceOnUse">
      <stop offset="0" stop-color="#136ab4"/>
      <stop offset=".6" stop-color="#59caf5" stop-opacity=".5"/>
      <stop offset="1" stop-color="#59caf5" stop-opacity=".2"/>
    </linearGradient>
    <linearGradient id="linear-gradient7" x1="742.3" y1="380.3" x2="742.4" y2="380.3" gradientTransform="translate(-463412.5 326958.2) scale(624.3 -859.5)" gradientUnits="userSpaceOnUse">
      <stop offset="0" stop-color="#05a1e6" stop-opacity=".2"/>
      <stop offset="1" stop-color="#05a1e6"/>
    </linearGradient>
    <linearGradient id="linear-gradient8" x1="741.4" y1="380.2" x2="741.4" y2="380.3" gradientTransform="translate(-315178.5 243391.7) scale(425.2 -639.9)" gradientUnits="userSpaceOnUse">
      <stop offset="0" stop-color="#318ed5"/>
      <stop offset="1" stop-color="#38a7e4"/>
    </linearGradient>
    <linearGradient id="linear-gradient9" x1="741.1" y1="380.8" x2="741.1" y2="381" gradientTransform="translate(-292885.8 188666) scale(395.3 -495.2)" gradientUnits="userSpaceOnUse">
      <stop offset="0" stop-color="#05a1e6"/>
      <stop offset="1" stop-color="#05a1e6" stop-opacity=".5"/>
    </linearGradient>
    <linearGradient id="linear-gradient10" x1="741.4" y1="380.4" x2="741.4" y2="380.5" gradientTransform="translate(-337460.6 267514.8) scale(455.2 -702.9)" gradientUnits="userSpaceOnUse">
      <stop offset="0" stop-color="#1959a6"/>
      <stop offset=".5" stop-color="#05a1e6"/>
      <stop offset=".9" stop-color="#7ec5ea"/>
      <stop offset="1" stop-color="#7ec5ea"/>
    </linearGradient>
    <linearGradient id="linear-gradient11" x1="742.3" y1="380.3" x2="742.2" y2="380.4" gradientTransform="translate(-467541 326445.1) scale(630 -858.2)" gradientUnits="userSpaceOnUse">
      <stop offset="0" stop-color="#165096"/>
      <stop offset="1" stop-color="#0d82ca"/>
    </linearGradient>
    <linearGradient id="linear-gradient12" x1="735.6" y1="380.2" x2="735.6" y2="380.2" gradientTransform="translate(-208747.5 188625.5) scale(284 -496)" gradientUnits="userSpaceOnUse">
      <stop offset="0" stop-color="#05a1e6"/>
      <stop offset=".9" stop-color="#0495d6"/>
      <stop offset="1" stop-color="#0495d6"/>
    </linearGradient>
    <linearGradient id="linear-gradient13" x1="739.4" y1="380.4" x2="739.4" y2="380.2" gradientTransform="translate(-386079.4 317578) scale(522.4 -834.9)" gradientUnits="userSpaceOnUse">
      <stop offset="0" stop-color="#38a7e4" stop-opacity=".3"/>
      <stop offset="1" stop-color="#0e88d3"/>
      <stop offset="1" stop-color="#0e88d3"/>
    </linearGradient>
    <linearGradient id="linear-gradient14" x1="740.2" y1="380.4" x2="740.2" y2="380.2" gradientTransform="translate(-450731.9 323476.2) scale(609.2 -850.4)" gradientUnits="userSpaceOnUse">
      <stop offset="0" stop-color="#168cd4"/>
      <stop offset=".5" stop-color="#1c87cc"/>
      <stop offset="1" stop-color="#154b8d"/>
    </linearGradient>
    <linearGradient id="linear-gradient15" x1="738.6" y1="383.8" x2="738.7" y2="384.1" gradientTransform="translate(-207739.3 -14131.2) scale(281.4 36.8)" gradientUnits="userSpaceOnUse">
      <stop offset="0" stop-color="#97d6ee"/>
      <stop offset=".7" stop-color="#55c1ea"/>
      <stop offset="1" stop-color="#55c1ea"/>
    </linearGradient>
    <linearGradient id="linear-gradient16" x1="736.9" y1="382.2" x2="736.9" y2="382" gradientTransform="translate(-168985.9 -24771.3) scale(229.5 64.9)" gradientUnits="userSpaceOnUse">
      <stop offset="0" stop-color="#7accec"/>
      <stop offset="1" stop-color="#3fb7ed"/>
    </linearGradient>
    <linearGradient id="linear-gradient17" x1="739" y1="380.3" x2="739" y2="380.2" gradientTransform="translate(-333197.6 265828.4) scale(451.1 -698.9)" gradientUnits="userSpaceOnUse">
      <stop offset="0" stop-color="#1da7e7"/>
      <stop offset="1" stop-color="#37abe7" stop-opacity="0"/>
    </linearGradient>
  </defs>
  <rect class="st5" x=".2" y=".1" width="255.8" height="244.4"/>
  <path d="M206.5,128.2c0-.4-.1-.7-.3-.9-.2-.2-.7-.3-1.3-.3h-.8v2.3h1c.9,0,1.4-.4,1.4-1.2h0ZM207.9,133h-1.2l-.7-1.6c-.4-.8-.8-1.2-1.2-1.2h-.6v2.9h-1v-6.8h1.9c.9,0,1.5.2,1.9.6.4.3.6.8.6,1.3s-.2.9-.5,1.2c-.3.3-.7.6-1.3.7h0c.4.1.8.5,1.1,1.3l.9,1.8h0ZM210,129.7c0-1.3-.5-2.5-1.4-3.4-.9-.9-2-1.3-3.4-1.3s-2.5.5-3.4,1.4c-.9.9-1.3,2-1.3,3.4s.5,2.5,1.4,3.4c.9.9,2,1.4,3.3,1.4s2.4-.5,3.3-1.4c.9-.9,1.4-2,1.4-3.4h0ZM210.6,129.6c0,1.5-.5,2.8-1.6,3.8-1,1-2.3,1.5-3.8,1.5s-2.8-.5-3.8-1.5c-1-1-1.5-2.3-1.5-3.8s.5-2.7,1.5-3.8c1-1,2.3-1.5,3.8-1.5s2.8.5,3.8,1.5c1,1,1.6,2.3,1.6,3.8h0ZM64.9,148.6h-3.3v-18.9c0-1.5,0-3.3.3-5.5h0c-.3,1.3-.6,2.2-.8,2.7l-9.6,21.6h-1.6l-9.6-21.5c-.3-.6-.6-1.6-.8-2.9h0c.1,1.1.2,3,.2,5.5v18.9h-3.2v-28.2h4.4l8.6,19.6c.7,1.5,1.1,2.6,1.3,3.4h.1c.6-1.5,1-2.7,1.3-3.5l8.8-19.6h4.1v28.2h0ZM75.1,148.6h-3.2v-20.1h3.2v20.1ZM75.6,121.3c0,.6-.2,1.1-.6,1.5-.4.4-.9.6-1.5.6s-1.1-.2-1.5-.6c-.4-.4-.6-.9-.6-1.5s.2-1.1.6-1.5c.4-.4.9-.6,1.5-.6.6,0,1.1.2,1.5.6.4.4.6.9.6,1.5ZM95.2,147.7c-1.5.9-3.4,1.4-5.5,1.4s-5.2-1-7-2.9c-1.7-1.9-2.6-4.3-2.6-7.2s.9-6,2.8-8c1.9-2,4.4-3,7.6-3s3.3.3,4.7,1v3.3c-1.5-1.1-3.1-1.6-4.8-1.6s-3.7.7-5,2.1c-1.3,1.5-2,3.4-2,5.8s.6,4.2,1.9,5.6c1.2,1.4,2.9,2,5,2s3.4-.6,4.9-1.7v3.1ZM110.5,131.8c-.6-.4-1.4-.6-2.5-.6s-2.4.6-3.3,1.8c-1,1.3-1.5,3.1-1.5,5.5v10.3h-3.2v-20.1h3.2v4.1h0c.5-1.5,1.2-2.6,2.2-3.4.9-.7,1.9-1.1,3.1-1.1s1.5,0,1.9.3v3.3h0ZM128.5,138.6c0-2.6-.6-4.5-1.7-5.9-1.1-1.3-2.7-1.9-4.7-1.9s-3.6.7-4.8,2c-1.3,1.4-1.9,3.4-1.9,5.9s.6,4.3,1.8,5.6c1.2,1.4,2.8,2,4.9,2s3.7-.7,4.8-2.1c1.1-1.3,1.6-3.2,1.6-5.7M131.8,138.5c0,3.2-.9,5.8-2.7,7.7-1.8,1.9-4.2,2.9-7.3,2.9s-5.4-1-7.2-2.9c-1.7-1.9-2.6-4.3-2.6-7.4s1-6.2,2.9-8.1c1.8-1.8,4.3-2.7,7.3-2.7s5.3.9,7,2.8c1.7,1.9,2.5,4.4,2.5,7.7M147.7,143.3c0,1.6-.6,3-1.8,4.1-1.3,1.2-3.2,1.8-5.5,1.8s-3.6-.4-5-1.2v-3.5c1.6,1.3,3.3,1.9,5.2,1.9s3.8-.9,3.8-2.8-.3-1.4-.8-1.9c-.6-.5-1.7-1.1-3.3-1.8-1.7-.7-2.9-1.5-3.6-2.3-.8-.9-1.3-2.1-1.3-3.6s.7-3.1,2-4.2c1.3-1.1,3-1.7,5.1-1.7s3,.3,4.3.9v3.2c-1.3-1-2.8-1.4-4.6-1.4s-1.9.3-2.6.8c-.6.5-1,1.2-1,2s.3,1.6.8,2.1c.5.5,1.5,1,3,1.7,1.7.7,3,1.5,3.7,2.2,1,1,1.5,2.2,1.5,3.7M167.4,138.6c0-2.6-.6-4.5-1.7-5.9-1.1-1.3-2.7-1.9-4.7-1.9s-3.6.7-4.8,2c-1.3,1.4-1.9,3.4-1.9,5.9s.6,4.3,1.8,5.6c1.2,1.4,2.9,2,4.9,2s3.7-.7,4.8-2.1c1.1-1.3,1.6-3.2,1.6-5.7M170.7,138.5c0,3.2-.9,5.8-2.7,7.7-1.8,1.9-4.2,2.9-7.3,2.9s-5.4-1-7.2-2.9c-1.7-1.9-2.6-4.3-2.6-7.4s1-6.2,2.9-8.1c1.8-1.8,4.3-2.7,7.3-2.7s5.3.9,7,2.8c1.7,1.9,2.5,4.4,2.5,7.7M184.9,121.7c-.6-.4-1.3-.5-2.1-.5-2.3,0-3.4,1.4-3.4,4.3v3.1h4.7v2.7h-4.7v17.4h-3.2v-17.4h-3.4v-2.7h3.4v-3.3c0-2.2.7-3.9,2.1-5.2,1.2-1.1,2.6-1.6,4.3-1.6s1.8.1,2.3.4v2.9ZM197.6,148.4c-.8.4-1.8.7-3,.7-3.5,0-5.3-2-5.3-5.9v-11.9h-3.4v-2.7h3.4v-4.9c1-.3,2.1-.7,3.2-1v5.9h5.1v2.7h-5.1v11.3c0,1.3.2,2.3.7,2.9.5.6,1.2.9,2.3.9s1.5-.2,2.1-.6v2.7Z"/>
  <path d="M23.6,227.1c0,1.6-.6,2.9-1.7,4.1-1.1,1.1-2.5,1.7-4.1,1.7s-2.9-.6-4-1.7c-1.1-1.2-1.6-2.5-1.6-4.1s.5-3,1.6-4.1c1.1-1.1,2.4-1.7,4-1.7s3,.6,4.1,1.7c1.1,1.2,1.7,2.5,1.7,4.1M95.6,231.8h-10.5l-38.1-58.9c-.9-1.5-1.7-3-2.3-4.6h-.3c.3,1.6.4,5,.4,10.1v53.3h-8.7v-73.8h11.2l37,57.9c1.5,2.3,2.5,3.9,3,4.9h.2c-.3-2.1-.5-5.7-.5-10.9v-52h8.6v73.8h0ZM151.1,231.8h-39.1v-73.8h37.4v7.8h-28.8v24.6h26.7v7.8h-26.7v25.8h30.5v7.8ZM210.5,165.7h-21.3v66h-8.7v-66h-21.3v-7.8h51.2v7.8Z"/>
  <g>
    <path class="st29" d="M92.7,30.4c8.3,25.5,11.5,71.1,35.9,71.1s3.7-.2,5.6-.5c-22.2-5.2-24.8-50.2-38.4-73.6-1.1,1-2.1,2-3.2,3"/>
    <path class="st6" d="M95.9,27.4c13.5,23.3,16.2,68.4,38.4,73.6,1.7-.3,3.5-.8,5.2-1.4-19.9-9.8-25.4-53.5-40.8-74.6-.9.8-1.9,1.6-2.8,2.4"/>
    <path class="st25" d="M115.4,13.5c-1.9,0-3.7.2-5.6.5-4.9.9-10,3.1-15,6.3,1.4,1.4,2.7,2.9,3.9,4.6,5.1-4.3,10.3-7.4,15.3-9.3,1.9-.7,3.8-1.2,5.7-1.6-1.4-.4-2.9-.5-4.4-.5"/>
    <path class="st0" d="M155,90.5c2.1-1.7,4.2-3.5,6.1-5.4-8.5-25.4-11.5-71.6-36.1-71.6s-3.5.2-5.3.5c22.4,5.6,25.3,54.3,35.3,76.5"/>
    <path class="st2" d="M119.8,14c-1.4-.4-2.9-.5-4.4-.5h9.7c-1.8,0-3.5.2-5.3.5"/>
    <path class="st11" d="M154.6,95.9c-1-.9-1.9-1.9-2.8-3-4.1,2.9-8.3,5.1-12.3,6.6,1.5.7,3,1.2,4.6,1.6,1.3.3,2.6.4,3.9.4,4.6,0,8.2-.5,11.3-2-1.7-.9-3.3-2.1-4.7-3.5"/>
    <path class="st22" d="M114,15.6c20.1,10.5,21.8,58,37.8,77.3,1.1-.8,2.2-1.6,3.2-2.4-10-22.2-12.9-70.9-35.3-76.5-2,.4-3.9.9-5.7,1.6"/>
    <path class="st17" d="M98.7,24.9c15.4,21.1,20.9,64.8,40.8,74.6,4.1-1.4,8.2-3.7,12.3-6.6-16-19.3-17.7-66.8-37.8-77.3-5.1,1.9-10.2,5-15.3,9.3"/>
    <path class="st20" d="M82.9,29.8c-2.4,5.5-4.9,12.6-7.8,22,5.9-8.3,11.8-15.5,17.7-21.3-.8-2.5-1.7-4.8-2.6-6.8-2.5,1.9-4.9,4-7.2,6.2"/>
    <path class="st21" d="M92.2,22c-.7.5-1.4,1-2.1,1.6.9,2,1.8,4.3,2.6,6.8,1-1,2.1-2,3.2-3-1.1-2-2.3-3.8-3.7-5.4"/>
    <path class="st4" d="M94.8,20.3c-.9.5-1.7,1.1-2.5,1.7,1.3,1.6,2.5,3.4,3.7,5.4.9-.8,1.9-1.6,2.8-2.4-1.2-1.7-2.6-3.3-3.9-4.6"/>
    <path class="st26" d="M231.6,11.6c-11.3,43.7-35,78.9-54.9,87.7h0c-.4.2-.7.3-1.1.5,0,0,0,0-.1,0-.1,0-.2,0-.3.1,0,0,0,0-.1,0-.2,0-.3.1-.5.2,0,0-.1,0-.2,0,0,0-.2,0-.2,0,0,0-.2,0-.2,0,0,0-.1,0-.2,0-.1,0-.3,0-.4.1,0,0-.1,0-.2,0,0,0-.2,0-.3,0,0,0-.1,0-.2,0-.1,0-.2,0-.3,0h-.4c.9.4,1.9.6,2.8.6,18.8,0,37.8-33.8,69.3-89.9h-12.3,0Z"/>
    <path class="st15" d="M70.9,15.3s0,0,0,0c0,0,0,0,0,0h0c.1,0,.2,0,.3-.1,0,0,0,0,0,0,0,0,0,0,0,0,.1,0,.2,0,.3-.1h0c.2,0,.5-.2.7-.3,0,0,0,0,.1,0,.1,0,.2,0,.3,0,0,0,0,0,.1,0,.1,0,.2,0,.3,0,0,0,0,0,.1,0,.3,0,.7-.2,1-.3,0,0,0,0,.1,0,.1,0,.2,0,.3,0,0,0,0,0,.1,0,.1,0,.2,0,.3,0h0c.2,0,.4,0,.6-.1h.1c.1,0,.2,0,.3,0,0,0,.1,0,.2,0,0,0,.2,0,.3,0,0,0,0,0,.2,0,.2,0,.4,0,.7,0-.7,0-1.3-.1-2-.1-21.2,0-50.4,39.4-63.6,90.3h2.5c4.2-7.5,8-14.6,11.5-21.3,9.2-36.1,28-60.7,44.7-67.2"/>
    <path class="st30" d="M82.9,29.8c2.3-2.2,4.7-4.3,7.2-6.2-.5-1.1-1.1-2.3-1.7-3.3-1.9,2.4-3.7,5.5-5.5,9.5"/>
    <path class="st30" d="M84.6,15.6c1.4,1.2,2.6,2.8,3.8,4.7.4-.4.7-.8,1.1-1.2-1.6-1.5-3.3-2.7-5.1-3.6,0,0,.1,0,.2.1,0,0,0,0,0,0"/>
    <path class="st9" d="M26.2,82.5C45.6,45.3,54.8,21.7,70.9,15.3c-16.7,6.5-35.5,31.1-44.7,67.2"/>
    <path class="st1" d="M89.5,19c-.4.4-.7.8-1.1,1.2.6,1.1,1.2,2.2,1.7,3.3.7-.5,1.4-1.1,2.1-1.6-.9-1.1-1.8-2.1-2.8-3"/>
    <path class="st8" d="M35,103.7c-.1,0-.2,0-.4,0h0c-.1,0-.2,0-.3,0h0c-.2,0-.5,0-.7,0h0c19.6-.5,28.5-10.3,33-24.6,3.4-10.8,6.1-19.9,8.6-27.5-8.2,11.5-16.4,25.3-24.7,40.7-4,7.4-10.1,10.5-15.3,11.2"/>
    <path class="st3" d="M35,103.6c5.2-.7,11.3-3.8,15.3-11.2,8.3-15.4,16.5-29.2,24.7-40.7,3-9.4,5.4-16.5,7.9-22-16.3,15.5-32.7,41.4-47.8,73.9"/>
    <path class="st18" d="M26.2,82.5c-3.5,6.7-7.2,13.8-11.5,21.3h7.4c.9-7.2,2.3-14.3,4.1-21.3"/>
    <path class="st10" d="M77.2,13.7c0,0-.1,0-.2,0,0,0-.2,0-.3,0,0,0-.1,0-.2,0-.1,0-.2,0-.3,0,0,0,0,0-.1,0-.2,0-.4,0-.6.1h0c-.1,0-.2,0-.3,0,0,0-.1,0-.2,0-.1,0-.2,0-.3,0,0,0,0,0-.1,0-.3,0-.7.2-1,.3,0,0,0,0-.1,0-.1,0-.2,0-.3,0,0,0,0,0-.1,0-.1,0-.2,0-.3,0,0,0,0,0-.1,0-.2,0-.5.2-.7.3-.1,0-.2,0-.3.1,0,0,0,0-.1,0-.1,0-.2,0-.3.1,0,0,0,0-.1,0-16.2,6.4-25.3,30-44.7,67.2-1.8,7-3.1,14.1-4.1,21.3h1c2.9,0,3.7,0,7.1,0h3.3c.2,0,.5,0,.7,0h0c.1,0,.2,0,.3,0h0c.1,0,.2,0,.3,0,15.1-32.5,31.5-58.3,47.8-73.9,1.8-4.1,3.6-7.2,5.5-9.5-1.1-1.9-2.4-3.5-3.8-4.7s0,0,0,0c0,0-.2,0-.2-.1,0,0-.1,0-.2-.1,0,0-.2,0-.2-.1,0,0-.2,0-.3-.1,0,0-.1,0-.2,0-.1,0-.3-.1-.4-.2,0,0-.1,0-.2,0-.1,0-.2,0-.3-.1,0,0-.1,0-.2,0-.2,0-.3-.1-.4-.2h0c-.2,0-.3,0-.5-.1,0,0,0,0-.1,0-.2,0-.3,0-.4-.1,0,0,0,0-.1,0-.4,0-.7-.2-1.1-.2,0,0,0,0-.1,0-.2,0-.3,0-.5,0,0,0,0,0,0,0-.2,0-.4,0-.6,0h0c-.1,0-.3,0-.4,0-.2,0-.5,0-.7,0"/>
    <path class="st14" d="M187.3,35.8c-3.7,11.9-6.7,21.8-9.4,29.8,10.2-14.1,20.3-31.7,29.8-52.1-11.2,3.5-17.1,11.5-20.5,22.3"/>
    <path class="st27" d="M178.2,98.6c-.5.3-1,.5-1.6.7,19.9-8.9,43.6-44,54.9-87.7h-2.3c-26.1,46.6-34.4,77.7-51,87"/>
    <path class="st31" d="M165.3,94.6c4.3-5.3,7.8-14.2,12.6-29-5.5,7.6-11.1,14.2-16.7,19.5t0,0c1.2,3.7,2.6,6.9,4.1,9.5"/>
    <path class="st11" d="M165.3,94.6c-1.5,1.8-3,3.2-4.8,4.2-.4.2-.8.4-1.2.6,1.9,1,3.9,1.7,6.1,1.9.3,0,.7,0,1,0h0c.2,0,.3,0,.5,0h1.6c0,0,.1,0,.2,0,.1,0,.2,0,.4,0h.2c.1,0,.3,0,.4,0h0s0,0,.1,0c.1,0,.3,0,.4,0h.1c.2,0,.3,0,.5,0h0c.3,0,.6-.1.9-.2-2.6-.9-4.7-3.2-6.6-6.3"/>
    <path class="st32" d="M128.6,101.5c1.9,0,3.7-.2,5.6-.5,1.7-.3,3.5-.8,5.2-1.4,1.5.7,3,1.2,4.6,1.6,1.3.3,2.6.4,3.9.4h-19.4Z"/>
    <path class="st32" d="M148,101.5c4.6,0,8.2-.5,11.3-2,1.9,1,3.9,1.7,6.1,1.9.3,0,.7,0,1,0h0c.2,0,.3,0,.5,0h.6-19.5,0Z"/>
    <path class="st7" d="M167.5,101.5h1.1c0,0,.1,0,.2,0,.1,0,.2,0,.4,0h.2c.1,0,.3,0,.4,0h0s0,0,.1,0c.1,0,.3,0,.4,0,0,0,0,0,.1,0,.2,0,.3,0,.5,0h0c.3,0,.6-.1.9-.2.9.3,1.9.5,2.8.5h-7.2s0,0,0,0Z"/>
    <path class="st13" d="M161.2,85.2h0c-2,1.9-4,3.6-6.1,5.3-1,.8-2.1,1.6-3.2,2.4.9,1.1,1.8,2.1,2.8,3,1.5,1.4,3,2.6,4.7,3.5.4-.2.8-.4,1.2-.6,1.7-1,3.3-2.4,4.8-4.2-1.5-2.6-2.9-5.8-4.1-9.5"/>
    <path class="st19" d="M222,11.6h-11.6c-.6,0-1.2,0-1.8,0-.3.6-.6,1.2-.9,1.8-9.6,20.4-19.6,38.1-29.8,52.1-4.8,14.8-8.3,23.7-12.6,29,1.8,3.2,4,5.4,6.6,6.3,0,0,.1,0,.2,0h0s0,0,.1,0c.1,0,.2,0,.3,0,0,0,.1,0,.2,0,0,0,.2,0,.3,0,0,0,.1,0,.2,0,.1,0,.3,0,.4-.1,0,0,.1,0,.2,0,0,0,.2,0,.2,0,0,0,.2,0,.2,0,0,0,.1,0,.2,0,.2,0,.3-.1.5-.2,0,0,0,0,.1,0,.1,0,.2,0,.3-.1,0,0,0,0,.1,0,.4-.1.7-.3,1.1-.5h0c.5-.2,1-.5,1.6-.7,16.6-9.3,25-40.4,51-87h-7.3,0Z"/>
    <path class="st16" d="M77.9,13.6s0,0,.1,0c.1,0,.2,0,.3,0h.1c.2,0,.4,0,.6,0,0,0,0,0,0,0,.2,0,.3,0,.5,0,0,0,0,0,.1,0,.4,0,.7.1,1.1.2,0,0,0,0,0,0,.1,0,.3,0,.4.1,0,0,0,0,.1,0,.2,0,.3,0,.5.1,0,0,0,0,0,0,.1,0,.3.1.4.2,0,0,.1,0,.2,0,.1,0,.2,0,.3.1,0,0,.1,0,.2,0,.1,0,.3.1.4.2,0,0,.1,0,.2,0,0,0,.2,0,.3.1,0,0,.2,0,.2.1,0,0,.2,0,.2.1,1.8.9,3.5,2.1,5.1,3.6.6-.6,1.2-1.1,1.8-1.7-3.4-2.4-7.3-3.8-11.9-3.8s-1,0-1.6,0"/>
    <path class="st28" d="M89.5,19c1,.9,1.9,1.9,2.8,3,.8-.6,1.7-1.1,2.5-1.7-1.1-1.1-2.2-2.1-3.5-2.9-.6.5-1.3,1.1-1.8,1.7"/>
    <path class="st23" d="M77.9,13.6c.5,0,1.1,0,1.6,0,4.5,0,8.4,1.4,11.9,3.8,3.6-2.9,8-3.9,14.1-3.9h-29.6c.7,0,1.3,0,2,.1"/>
    <path class="st12" d="M105.4,13.5c-6.1,0-10.5,1-14.1,3.9,1.2.9,2.4,1.9,3.5,2.9,5.1-3.2,10.1-5.3,15-6.3,1.9-.4,3.7-.5,5.6-.5h-10Z"/>
    <path class="st24" d="M177.9,65.6c2.6-8.1,5.6-17.9,9.4-29.9,3.4-10.7,9.3-18.8,20.5-22.3.3-.6.6-1.2.9-1.8-18.2,1.1-26.7,10.4-31,24.1-7.5,24-12,39.5-16.4,49.4,5.6-5.3,11.2-11.9,16.7-19.5"/>
    <path d="M204.6,95.1h-2.1v6.4h-.8v-6.4h-2.1v-.8h5v.8ZM213.1,101.5h-.8v-4.8c0-.4,0-.8,0-1.4,0,.3-.2.6-.2.7l-2.4,5.5h-.4l-2.5-5.5c0-.2-.1-.4-.2-.7h0c0,.3,0,.8,0,1.4v4.8h-.8v-7.2h1.1l2.2,5c.2.4.3.7.3.9h0c.1-.4.3-.7.3-.9l2.2-5h1.1v7.2h0Z"/>
  </g>
</svg>